<svg width="100%" height="120" viewBox="0 0 128 128" version="1.1" xmlns="http://www.w3.org/2000/svg" xmlns:xlink="http://www.w3.org/1999/xlink">
    <g stroke="none" stroke-width="1" fill="none" fill-rule="evenodd">
        <g transform="translate(24.000000, 26.000000)">
            <polyline fill="#052286" points="50.7013404 72.3358497 58.1507932 69.7543648 51.0191021 49.1821451 66.7811287 62.7312203 72.640898 57.4710838 57.5459082 43.8633584 75.3195496 47.2414357 69.5210567 39.0304055 57.6675855 35.4790036 78.2389298 28.3481879 75.6565695 20.8978597 55.0861006 28.0295509 69.3354769 11.5680985 63.3741639 6.40863029 49.1247876 22.8692073 53.2346796 1.4881398 45.4919758 0 41.3820838 21.3819428 34.2503926 0.810598504 26.8009398 3.39208337 33.932631 23.9634277 17.4711787 9.71317603 12.3117104 15.674489 28.7731628 29.9247407 7.39121994 25.8148487 5.90395551 33.5566772 27.285023 37.6674445 6.71280326 44.7982603 9.29516351 52.2477131 29.8665078 45.1168973 19.7576617 56.7944179 21.5775691 66.7378179 35.8269454 50.2772409 31.7170534 71.6583084 39.4606327 73.1464482 43.5705247 51.7645053"></polyline>
            <path d="M11.1521869,65.2035457 L17.1423873,65.2035457 L17.1423873,54.4040277 L11.1521869,54.4040277 L11.1521869,65.2035457 Z M29.006363,24.6132196 L0.647670653,46.3067964 L0.647670653,75.9995623 L54.6461364,75.9995623 L54.6461364,46.3067964 L29.006363,24.6132196 Z" id="Fill-20" fill="#00ADBB"></path>
            <path d="M76.9382956,49.256377 C76.9382956,43.3222007 72.1272272,38.5111323 66.1930509,38.5111323 C63.2167712,38.5111323 60.5241136,39.7209024 58.5781519,41.6747424 L54.6459614,45.606933 L50.7137708,41.6747424 C48.7686845,39.7209024 46.0760269,38.5111323 43.0997473,38.5111323 C37.1646956,38.5111323 32.3536271,43.3222007 32.3536271,49.256377 C32.3536271,52.2274043 33.5598957,54.9165605 35.5076081,56.8616468 L35.5076081,56.8616468 L39.4494279,60.8034665 L54.6459614,76 L69.8424949,60.8034665 L73.7843146,56.8616468 L73.7843146,56.8616468 C75.7329024,54.9165605 76.9382956,52.2274043 76.9382956,49.256377" id="Fill-22" fill="#CEB7FF"></path>
        </g>
    </g>
</svg>