<svg width="100%" height="120" viewBox="0 0 128 128" version="1.1" xmlns="http://www.w3.org/2000/svg" xmlns:xlink="http://www.w3.org/1999/xlink">
    <defs>
        <polygon points="0.224368597 0.211033162 72.0871309 0.211033162 72.0871309 60.2889123 0.224368597 60.2889123"></polygon>
        <polygon points="0 0.117412471 35.9356312 0.117412471 35.9356312 36.0511182 0 36.0511182"></polygon>
    </defs>
    <g stroke="none" stroke-width="1" fill="none" fill-rule="evenodd">
        <g transform="translate(3.000000, 25.000000)">
            <g transform="translate(48.717949, 0.000000)">
                <path d="M72.0871309,17.43146 C72.0871309,7.920872 64.3324596,0.210912342 54.7667178,0.210912342 C49.9706821,0.210912342 45.6303507,2.15008157 42.4934841,5.28174926 L36.1557498,11.582539 L29.8184205,5.28174926 C26.6815538,2.15008157 22.3408175,0.210912342 17.5447817,0.210912342 C7.97903987,0.210912342 0.224368597,7.920872 0.224368597,17.43146 C0.224368597,22.1917882 2.16789726,26.5010532 5.30800444,29.6182224 L5.30759937,29.6190279 L11.6615366,35.935927 L36.1557498,60.2889123 L60.650368,35.935927 L67.0043052,29.6190279 L67.0034951,29.6182224 C70.1440073,26.5010532 72.0871309,22.1917882 72.0871309,17.43146" id="Fill-1" fill="#B6CCBC" mask="url(#mask-2)"></path>
            </g>
            <path d="M45.3068686,24.3589744 L45.3068686,37.2495245 L32.1538462,37.2495245 L32.1538462,76 L84.7692308,76 L84.7692308,42.4152035 L66.3563997,42.4152035 L66.3563997,24.3589744 L45.3068686,24.3589744 Z M39.5227677,48.1120433 L45.3105753,48.1120433 L45.3105753,42.4313728 L39.5227677,42.4313728 L39.5227677,48.1120433 Z M45.2953366,60.5171109 L51.0831443,60.5171109 L51.0831443,54.8368447 L45.2953366,54.8368447 L45.2953366,60.5171109 Z" id="Fill-4" fill="#124124"></path>
            <g transform="translate(0.000000, 39.948718)">
                <path d="M27.1464925,17.7087994 L31.9781836,10.9188682 L31.9781836,17.7087994 L27.1464925,17.7087994 Z M24.4131498,25.8817889 L31.9781836,25.8817889 L31.9781836,21.6617406 L24.4131498,21.6617406 L24.4131498,25.8817889 Z M35.9356312,11.3424707 L35.9356312,2.09367821 C35.9356312,1.00230758 35.0499167,0.117412471 33.9569074,0.117412471 C32.8643078,0.117412471 31.9781836,1.00230758 31.9781836,2.09367821 L31.9781836,7.29530466 C29.8437839,7.29325629 26.8273567,7.29612401 24.4131498,7.29981107 L24.4131498,2.09367821 C24.4131498,1.00230758 23.5274354,0.117412471 22.4348357,0.117412471 C21.3422361,0.117412471 20.4561119,1.00230758 20.4561119,2.09367821 L20.4561119,7.30841422 L-0.000122902098,36.0511182 L14.0922413,36.0511182 L20.4561119,27.1091712 L20.4561119,30.1382983 L20.4561119,30.1419853 L20.4561119,36.0507085 L24.4131498,36.0507085 L24.4131498,29.8347301 L31.9781836,29.8347301 L31.9781836,30.0248186 C31.9781836,30.0260477 31.9785933,30.0272767 31.9785933,30.0285057 L31.9785933,36.0507085 L35.9356312,36.0507085 L35.9356312,11.3424707 Z" id="Fill-6" fill="#FF5D3E" mask="url(#mask-4)"></path>
            </g>
        </g>
    </g>
</svg>