<svg width="100%" height="120" viewBox="0 0 128 128" version="1.1" xmlns="http://www.w3.org/2000/svg" xmlns:xlink="http://www.w3.org/1999/xlink">
    <g stroke="none" stroke-width="1" fill="none" fill-rule="evenodd">
        <g transform="translate(23.000000, 25.500000)">
            <polygon fill="#730731" points="81.7659574 27.8817532 63.2992221 27.8817532 79.2922173 18.6483855 75.846151 12.679434 59.8525336 21.9134238 69.0862123 5.92011745 63.1178829 2.47405108 53.8842042 18.4673574 53.8842042 1.10134124e-13 46.9920715 1.10134124e-13 46.9920715 18.4673574 37.7583928 2.47405108 31.7900634 5.92011745 41.0237421 21.9134238 48.4550781 34.7738859 21.5840583 44.0072536 25.0301247 49.9762051 41.0237421 40.7425264 31.7900634 56.7355216 37.7583928 60.181588 46.9920715 44.1882817 46.9920715 62.6556391 53.8842042 62.6556391 53.8842042 44.1882817 63.1178829 60.181588 69.0862123 56.7355216 59.8525336 40.7425264 75.846151 49.9762051 79.2922173 44.0072536 63.2992221 34.7738859 81.7659574 34.7738859"></polygon>
            <path d="M21.0098383,29.1604276 L42.7416119,29.1604276 L31.829535,17.7646759 L21.0098383,29.1604276 Z M9.74659173,29.1604276 L31.8043403,5.9287956 L54.0502711,29.1604276 L65.343378,29.1604276 L65.343378,70 L-2.27373675e-13,70 L-2.27373675e-13,29.1604276 L9.74659173,29.1604276 Z" id="Fill-51" fill="#FF8C68"></path>
        </g>
    </g>
</svg>