<svg width="100%" height="100%" viewBox="0 0 150 150" version="1.1" xmlns="http://www.w3.org/2000/svg" xmlns:xlink="http://www.w3.org/1999/xlink" xml:space="preserve" xmlns:serif="http://www.serif.com/" style="fill-rule:evenodd;clip-rule:evenodd;stroke-linejoin:round;stroke-miterlimit:2;">
    <g transform="matrix(1.03241,0,0,1.03241,-4.61455,-1.57168)">
        <g transform="matrix(-1.1768,-1.44116e-16,1.61402e-16,-1.31795,165.966,214.712)">
            <path d="M134.357,101.642C133.857,81.244 117.196,63.474 93.215,57.762L61.206,57.762C37.225,63.474 20.564,81.244 20.064,101.642L134.357,101.642Z" style="fill:rgb(134,144,153);"/>
        </g>
        <g transform="matrix(1.20708,0,0,1.02282,3.43409,-0.846492)">
            <g transform="matrix(-0.212707,2.60491e-17,2.47067e-17,0.201745,82.1074,11.7761)">
                <path d="M126.711,125.916C131.727,118.82 134.368,110.77 134.368,102.576C134.368,76.812 108.757,55.895 77.211,55.895C45.664,55.895 20.053,76.812 20.053,102.576C20.053,110.77 22.694,118.82 27.71,125.916L126.711,125.916Z" style="fill:rgb(134,144,153);"/>
            </g>
            <g transform="matrix(0.696363,0.71769,-0.71769,0.696363,27.6469,-91.9548)">
                <path d="M134.495,30.654C130.735,27.131 125.634,25.151 120.316,25.151C109.248,25.151 100.263,33.57 100.263,43.941C100.263,49.495 102.886,54.764 107.426,58.334L113.871,51.137C111.601,49.352 110.289,46.718 110.289,43.941C110.289,38.755 114.782,34.546 120.316,34.546C122.975,34.546 125.525,35.536 127.405,37.297L134.495,30.654Z" style="fill:rgb(134,144,153);"/>
            </g>
            <g transform="matrix(1.06897,0,0,1,-6.84936,-3.15789)">
                <rect x="90.158" y="27.677" width="9.158" height="56.842" style="fill:rgb(134,144,153);"/>
            </g>
        </g>
    </g>
</svg>
